HIERARCHY
ROOT Hips
{
  OFFSET -33.9132 29.2015 117.021
  CHANNELS 6 Xposition Yposition Zposition Zrotation Xrotation Yrotation
  JOINT LeftUpLeg
  {
    OFFSET 8.64259 1.95398 -2.38835
    CHANNELS 3 Zrotation Xrotation Yrotation
    JOINT LeftLeg
    {
      OFFSET 43.7702 0 0
      CHANNELS 3 Zrotation Xrotation Yrotation
      JOINT LeftFoot
      {
        OFFSET 40.6238 0 0
        CHANNELS 3 Zrotation Xrotation Yrotation
        JOINT LeftToeBase
        {
          OFFSET 12.7242 0 0
          CHANNELS 3 Zrotation Xrotation Yrotation
          End Site
          {
            OFFSET 0 0 0
          }
        }
      }
    }
  }
  JOINT RightUpLeg
  {
    OFFSET -8.2249 1.95398 -2.59336
    CHANNELS 3 Zrotation Xrotation Yrotation
    JOINT RightLeg
    {
      OFFSET 43.5653 0 0
      CHANNELS 3 Zrotation Xrotation Yrotation
      JOINT RightFoot
      {
        OFFSET 40.6238 0 0
        CHANNELS 3 Zrotation Xrotation Yrotation
        JOINT RightToeBase
        {
          OFFSET 12.7242 0 0
          CHANNELS 3 Zrotation Xrotation Yrotation
          End Site
          {
            OFFSET 0 0 0
          }
        }
      }
    }
  }
  JOINT Spine
  {
    OFFSET 0.165834 0.87714 6.61349
    CHANNELS 3 Zrotation Xrotation Yrotation
    JOINT Spine1
    {
      OFFSET 7.38963 1.71661e-005 0
      CHANNELS 3 Zrotation Xrotation Yrotation
      JOINT Spine2
      {
        OFFSET 11.9445 1.14441e-005 0
        CHANNELS 3 Zrotation Xrotation Yrotation
        JOINT Spine3
        {
          OFFSET 14.7254 4.19617e-005 0
          CHANNELS 3 Zrotation Xrotation Yrotation
          JOINT Spine4
          {
            OFFSET 10.9679 0 0
            CHANNELS 3 Zrotation Xrotation Yrotation
            JOINT RightShoulder
            {
              OFFSET 2.46616 -1.6653 3.69651
              CHANNELS 3 Zrotation Xrotation Yrotation
              JOINT RightArm
              {
                OFFSET 13.0012 0 0
                CHANNELS 3 Zrotation Xrotation Yrotation
                JOINT RightForeArm
                {
                  OFFSET 28.7848 1.62311e-005 0
                  CHANNELS 3 Zrotation Xrotation Yrotation
                  JOINT RightHand
                  {
                    OFFSET 26.5688 1.62095e-005 0
                    CHANNELS 3 Zrotation Xrotation Yrotation
                    End Site
                    {
                      OFFSET 0 0 0
                    }
                  }
                }
              }
            }
            JOINT LeftShoulder
            {
              OFFSET 2.38034 -1.29275 -3.7523
              CHANNELS 3 Zrotation Xrotation Yrotation
              JOINT LeftArm
              {
                OFFSET 16.3182 6.07031e-005 0
                CHANNELS 3 Zrotation Xrotation Yrotation
                JOINT LeftForeArm
                {
                  OFFSET 27.0901 0 0
                  CHANNELS 3 Zrotation Xrotation Yrotation
                  JOINT LeftHand
                  {
                    OFFSET 24.5451 1.51738e-005 0
                    CHANNELS 3 Zrotation Xrotation Yrotation
                    End Site
                    {
                      OFFSET 0 0 0
                    }
                  }
                }
              }
            }
            JOINT Neck
            {
              OFFSET 5.0226 -0.0266342 0
              CHANNELS 3 Zrotation Xrotation Yrotation
              JOINT Head
              {
                OFFSET 6.69364 2.86102e-005 0
                CHANNELS 3 Zrotation Xrotation Yrotation
                End Site
                {
                  OFFSET 0 0 0
                }
              }
            }
          }
        }
      }
    }
  }
}
MOTION
Frames:	15
Frame Time:	0.0416667
88.2705 92.3509 108.874 -89.8051 46.3635 -87.5286 -169.768 13.9924 88.9644 -47.3527 16.7129 -2.59482 90.858 21.3962 -1.33853 25.9289 -1.09217 -0.471362 178.154 23.6867 90.1488 -79.2535 -4.8953 -4.68713 70.8481 -7.77568 -5.40254 10.8537 4.88539 8.47312 -0.352483 8.25631 -90.5629 10.3611 -0.959857 -1.03275 -1.30984 -1.00438 -0.989513 -23.8436 -0.605123 -1.27345 -3.83098 -0.605117 -1.27345 93.7365 -27.1248 -100.082 34.7595 2.40549 46.3633 -56.3004 -0.298211 -92.7974 -45.5578 12.1315 -33.9587 -88.4426 -48.4239 80.7652 -9.14439 -2.46058 -9.63086 36.8987 26.0322 -59.9478 25.6734 -16.1491 -59.0478 20.3041 5.87163 -4.25244 -0.548583 7.02591 3.47255 
94.6184 93.1091 115.61 -94.2568 48.5632 -85.9771 -169.935 18.5145 87.4389 -48.3112 16.0557 -3.43726 83.8874 16.5546 0.41009 22.5524 -2.17826 -1.48572 177.526 6.74262 86.1984 -72.5789 -10.3419 -6.4453 65.2302 -4.12048 -4.50365 13.7134 3.30627 9.54401 0.483481 8.24755 -90.3267 10.3784 0.813627 -0.719917 -1.29253 0.781169 -0.755039 -23.8286 0.992348 -0.442098 -3.81593 0.992368 -0.442093 92.7074 -25.6587 -102.784 32.2023 3.43155 40.8057 -54.3969 3.2106 -95.4662 -46.386 11.8932 -32.8672 -87.4287 -51.1403 82.7673 -14.8123 3.42353 10.8167 43.726 27.8831 -62.6391 23.7985 -15.3209 -60.0629 13.2358 3.13912 -2.25919 1.69868 3.6989 1.57223 
101.205 94.4807 122.312 -96.0737 51.1837 -86.5695 -170.474 22.0657 85.8322 -43.0667 15.318 -4.7131 74.0084 9.63222 2.02518 20.0761 -2.09096 -3.8523 176.397 -5.35459 83.5848 -60.4479 -20.2772 -9.3423 61.3863 -1.24576 -1.83876 16.9157 2.28765 8.95963 1.41017 8.15362 -90.0558 10.5735 2.78305 -0.361046 -1.09455 2.76447 -0.483283 -23.6533 2.76279 0.49273 -3.6406 2.7628 0.492728 92.8468 -21.9781 -103.816 32.0379 0.122516 35.7387 -42.9201 4.77963 -98.7256 -49.7594 11.7639 -30.5434 -85.879 -49.0702 84.7778 -18.3126 11.3126 26.1606 37.3769 20.6504 -62.237 18.8032 -13.756 -65.6136 9.18662 0.342479 -2.27559 2.29762 0.84781 0.393492 
108.831 95.1277 129.54 -93.0547 52.5169 -89.7995 -171.018 27.7423 86.3494 -34.6975 20.7103 -6.14979 64.2451 2.65247 2.40883 18.8818 -3.5903 -1.90762 175.986 -10.2968 83.7174 -49.7764 -31.3153 -11.2601 60.7413 -1.02248 -2.14521 20.3703 0.688134 9.84736 2.00879 8.02394 -89.8948 10.8345 4.04827 -0.169615 -0.830117 4.03686 -0.34793 -23.4139 3.91178 1.05683 -3.40129 3.91177 1.05682 94.4738 -16.9148 -101.913 30.2807 -0.50267 31.6157 -40.4507 7.51102 -102.851 -51.338 12.1575 -30.4713 -86.4099 -45.3191 83.3517 -21.0319 14.7771 34.9442 35.2691 15.9978 -62.2954 18.2519 -13.9102 -67.4047 10.0353 -1.7254 -2.52901 0.930202 -1.10044 0.356788 
117.548 93.6349 137.328 -87.1218 52.001 -94.1242 -170.12 37.0365 87.6633 -37.1639 30.5929 -7.29908 66.1928 3.9018 0.596578 18.7547 -7.99372 5.90173 177.325 -8.81797 87.1075 -40.3995 -27.9335 -9.38322 66.3082 -5.42364 -3.7403 33.925 -4.38 10.4925 1.89543 7.78739 -89.832 11.3043 3.85027 -0.0453224 -0.360905 3.84455 -0.214999 -22.9391 3.68564 1.11554 -2.92649 3.68563 1.11554 95.0777 -14.7464 -101.208 28.4188 -0.24577 30.5657 -30.8748 8.65167 -109.367 -53.9977 14.2533 -33.0298 -87.3732 -42.4306 81.2704 -24.3366 14.6386 39.0195 37.4357 14.5204 -63.1988 20.5275 -15.8101 -68.5455 14.0104 -1.61772 -2.51174 -1.54541 -0.912596 0.720662 
126.736 90.6675 145.364 -88.8896 50.5333 -91.5978 -164.64 43.8306 87.4169 -58.0981 26.7014 -6.03022 74.0692 9.60186 1.93487 18.7373 -6.5842 3.35263 178.051 -4.59366 90.8829 -42.7975 -15.2983 -7.0852 81.4731 -16.2592 -3.65567 47.9583 -8.70745 4.77685 1.38178 8.0429 -90.1009 10.7937 2.70488 -0.450876 -0.874528 2.68241 -0.569579 -23.432 2.71525 0.383512 -3.4194 2.71522 0.383501 95.3611 -15.4979 -100.17 27.2597 -0.842157 29.7188 -27.5746 9.47639 -113.488 -57.6658 16.7956 -35.5239 -87.3627 -44.8358 81.7504 -23.7175 15.8494 34.0035 41.3487 15.8533 -63.9 21.7263 -16.8189 -69.0738 16.3511 0.216265 -1.62118 -0.462961 0.698301 1.61666 
134.744 88.7534 152.72 -93.6989 47.4896 -83.1308 -165.39 45.1838 92.3251 -78.3381 20.8514 -0.780191 77.8422 11.7602 1.5146 19.6257 -6.69223 4.42483 176.947 1.87408 95.4263 -51.0863 -9.04511 -3.14606 90.5806 -21.1934 0.883353 39.014 -5.4198 6.07544 0.643844 8.53672 -90.7331 9.80467 0.951297 -1.53019 -1.86688 0.883041 -1.57057 -24.4001 1.36718 -1.1736 -4.38747 1.36717 -1.17361 94.2635 -20.0095 -101.252 27.723 -0.395024 33.2865 -32.9834 11.3447 -112.3 -58.7057 16.5585 -34.5035 -86.5169 -49.8079 83.9234 -18.8688 16.2265 18.4006 40.7181 21.3363 -61.9818 22.5961 -15.9768 -64.5119 19.5118 2.56246 -2.91395 -0.98575 3.40506 2.62149 
140.347 88.8317 158.027 -95.0649 44.4568 -81.0382 -169.181 38.9704 96.4549 -87.3121 21.964 1.92651 72.12 8.89944 5.76305 23.0932 -1.34021 -2.67584 174.323 7.9679 95.9989 -55.3797 -12.0121 -0.685987 88.718 -20.9398 -1.31839 38.2632 -5.13039 5.89947 0.141469 8.65701 -90.9406 9.55413 -0.141949 -1.85318 -2.11811 -0.223356 -1.84515 -24.6431 0.421472 -1.8102 -4.63043 0.421474 -1.81021 93.1103 -22.322 -103.098 32.2627 -4.77085 40.5465 -30.5572 6.31978 -106.21 -55.0333 15.6192 -35.0791 -87.8275 -51.9231 82.3185 -13.5593 13.2362 -0.431033 40.4476 25.844 -60.5445 21.7304 -14.8756 -62.9092 17.1261 3.81448 -1.61621 1.13401 4.16475 0.680413 
144.748 89.5156 162.844 -97.2234 44.0212 -80.107 -170.574 25.9997 99.0066 -86.522 21.0244 2.99202 70.0823 7.55499 5.64105 26.0817 -1.36219 0.32981 174.437 11.3927 95.6408 -56.0202 -11.8483 -0.781631 87.9712 -20.4375 -2.02118 33.367 -3.58346 7.98488 -0.0892145 8.52483 -90.7364 9.81922 -0.51152 -1.41966 -1.85236 -0.573475 -1.39579 -24.3814 -0.0612428 -1.50774 -4.36879 -0.0612398 -1.50774 93.1679 -25.0999 -101.96 39.9289 -7.31565 42.9508 -31.4911 1.41708 -92.0393 -45.3351 13.3587 -36.8518 -87.7103 -49.5319 82.0755 -12.1273 12.2159 -15.9276 35.7861 27.2028 -57.3736 23.6961 -16.0525 -62.3783 12.6987 4.15591 -4.35663 0.86983 5.17964 2.25608 
148.989 90.1819 167.86 -97.193 48.2727 -81.4359 -169.59 13.1631 98.4596 -78.435 22.5279 2.63895 67.6549 5.83911 4.80105 27.7779 -0.383403 -0.176846 177.884 18.0063 95.5199 -57.731 -14.2856 -2.89557 83.8237 -17.8893 -4.14751 31.7882 -2.95763 7.58427 0.0217461 8.22601 -90.4201 10.4212 -0.149244 -0.823327 -1.25002 -0.185322 -0.815958 -23.7831 0.105115 -0.830106 -3.77049 0.105099 -0.830114 93.1831 -24.4946 -102.141 49.2406 -9.99275 41.888 -28.6546 -7.19934 -79.6914 -43.9983 11.0635 -32.5087 -87.2584 -46.8542 82.2903 -11.5695 7.13049 -26.7296 31.8299 27.4714 -55.1971 24.5153 -16.983 -63.6341 10.6372 5.1367 -5.31127 0.09148 6.29928 2.7759 
152.09 91.034 172.786 -99.1738 48.0425 -78.0306 -170.675 -0.00824751 100.359 -66.1425 26.1932 4.2387 67.1949 5.6211 4.1421 27.5434 -0.762599 0.460097 178.461 20.054 96.5645 -55.4473 -16.1067 -2.48228 79.8271 -14.9377 -4.68939 28.9029 -1.75181 7.06416 -0.245166 8.28351 -90.5546 10.3024 -0.741983 -1.03742 -1.36876 -0.786936 -1.00377 -23.9012 -0.395933 -1.21243 -3.88857 -0.395927 -1.21244 92.7623 -23.6937 -103.353 53.9845 -7.13185 38.883 -26.0473 -12.1825 -66.1571 -39.3172 10.1681 -33.5971 -87.0942 -44.1511 82.0525 -12.3654 1.60161 -32.563 28.1481 25.1337 -54.4636 25.1275 -17.3202 -63.4843 11.0093 6.13259 -5.1948 -0.852823 7.22311 2.19955 
155.844 91.1219 178.553 -98.1188 48.4873 -80.2897 -170.586 -9.28911 97.6554 -48.0797 22.0494 3.61954 70.1628 8.25212 3.83035 51.0553 9.23501 1.53671 178.99 25.8713 94.3874 -55.3963 -17.8785 -3.07162 75.4658 -11.26 -4.18168 28.4039 -1.58095 7.15463 -0.400645 8.19109 -90.3563 10.4886 -0.961448 -0.622231 -1.1821 -0.987909 -0.579309 -23.7179 -0.730027 -0.882425 -3.70522 -0.730026 -0.882418 92.1514 -23.9763 -104.596 54.2656 -2.07774 35.575 -26.6409 -18.903 -55.8101 -36.599 7.8851 -29.1855 -86.8247 -42.2933 82.1399 -14.0967 -4.13124 -38.4206 27.7493 26.2285 -54.0303 26.7146 -17.9225 -62.2735 12.2805 6.49914 -5.5167 -1.21472 7.7029 2.64147 
160.316 90.6913 184.798 -98.155 47.6371 -80.0683 -168.782 -13.7174 97.9416 -35.9931 14.7355 2.40741 85.794 19.0086 0.496113 52.9912 9.01693 6.34888 178.743 30.5793 93.6072 -53.7158 -19.0305 -2.61717 71.0039 -7.8259 -3.62324 25.8506 -0.622464 7.22896 -0.407526 8.30216 -90.4701 10.2654 -1.02669 -0.846473 -1.40541 -1.06294 -0.800466 -23.9402 -0.724853 -1.11589 -3.92757 -0.724854 -1.11589 92.8321 -24.5201 -102.902 53.9083 2.46977 23.7968 -18.6934 -25.13 -35.5966 -37.1338 8.21787 -29.7184 -87.7694 -43.1441 80.7636 -16.2015 -7.39966 -43.7301 29.8202 29.7818 -53.4935 29.481 -18.8513 -59.9567 13.7559 6.1949 -4.64977 -0.656052 7.24993 2.25108 
164.837 90.4685 190.792 -99.2219 47.0122 -79.5963 -167.548 -10.1354 98.8067 -36.9332 12.3763 1.10891 98.0659 24.2272 -6.60984 37.5327 1.57588 7.1306 177.893 33.0349 92.4493 -50.0218 -21.0488 -1.86216 67.6002 -5.24847 -2.88643 21.0114 0.85928 8.53207 -0.403206 8.46225 -90.4482 9.9449 -1.0072 -0.807696 -1.72587 -1.04177 -0.7626 -24.2608 -0.717892 -1.07305 -4.24817 -0.71789 -1.07306 91.2969 -26.8661 -105.295 51.0676 7.65172 8.22886 -6.0238 -29.5004 -8.03674 -35.5031 8.1049 -30.6736 -88.6789 -44.4135 79.5646 -19.215 -8.9562 -44.2214 33.5752 33.6204 -54.2057 31.4057 -18.6959 -56.3954 13.8928 5.70152 -4.7172 0.314226 6.79963 1.97739 
167.791 91.3969 195.305 -103.67 48.0213 -78.5728 -168.387 -10.2301 95.5224 -37.1609 11.0043 0.0996204 98.3826 23.5398 -7.98963 33.4791 -0.154048 6.07951 176.608 30.7363 90.0412 -47.9835 -28.6885 -1.84773 65.9406 -4.3035 -3.95436 19.882 1.16024 8.93587 -0.243492 8.69037 -90.2055 9.49213 -0.578014 -0.363685 -2.17874 -0.593458 -0.337905 -24.7142 -0.441987 -0.52059 -4.70151 -0.442 -0.520592 91.0942 -26.8273 -105.755 49.8531 8.37038 6.55497 -4.73143 -32.6098 -5.15527 -27.1936 4.91312 -25.7954 -89.4107 -46.5784 78.8834 -19.8415 -8.40897 -39.1159 32.5163 35.8648 -51.8347 35.3592 -19.0188 -51.6341 11.3669 5.25693 -4.38257 1.77029 6.21092 1.59079 
